[img]http://img534.imageshack.us/img534/2650/underworlf.jpg[/img]
[code]
Underworld Awakening 2012 CAM READNFO XviD AC3-26K

Imdb: 
http://www.imdb.com/title/tt1496025/

Plot:
When human forces discover the existence of the Vampire and Lycan clans, a war to eradicate both species 

commences. The vampire warrioress Selene leads the battle against humankind.

Sources:
LUMX1 FOR VIDEO
AUDIO to whoever put it out there...

Notes:
READNFO BECAUSE THE VIDEO IS BAD WHAT DO YOU EXPECT FOR A FIRST CAM... AUDIO IS NOT TO BAD EITHER.. SO 

BOTTOM LINE IS TAKE IT OR LEAVE IT :)....
ADDED A FEW FILTERS TO THE VIDEO TO MAKE IT LOOKS NICE SO ENJOY!

@roadrunner08@
stop uploading my stuff...now you know who i am...

Greetz:
Xtreme 

Encode|FYA|ILLUMANTI|CM8|RX|VISION|HDSCENE|NIGHTMAREZ|xTriLL|DTRG|CRYS|REMIXHD|BIDA|RX|REFILL|INSPiRAL|S

IC|ZOMBIESZ|HOPE|Anonymous
To all the people who have helped me :P you know who you are

Anything to offer email us @: 26k@hushmail.me

Video
ID                                       : 0
Format                                   : MPEG-4 Visual
Format profile                           : Advanced Simple@L5
Format settings, BVOP                    : 2
Format settings, QPel                    : No
Format settings, GMC                     : No warppoints
Format settings, Matrix                  : Default (H.263)
Codec ID                                 : XVID
Codec ID/Hint                            : XviD
Duration                                 : 1h 16mn
Bit rate                                 : 2 000 Kbps
Width                                    : 720 pixels
Height                                   : 344 pixels
Display aspect ratio                     : 2.093
Frame rate                               : 25.000 fps
Color space                              : YUV
Chroma subsampling                       : 4:2:0
Bit depth                                : 8 bits
Scan type                                : Progressive
Compression mode                         : Lossy
Bits/(Pixel*Frame)                       : 0.323
Stream size                              : 1.06 GiB (89%)
Writing library                          : XviD 63

Audio
ID                                       : 1
Format                                   : AC-3
Format/Info                              : Audio Coding 3
Mode extension                           : CM (complete main)
Codec ID                                 : 2000
Duration                                 : 1h 16mn
Bit rate mode                            : Constant
Bit rate                                 : 224 Kbps
Channel(s)                               : 2 channels
Channel positions                        : Front: L R
Sampling rate                            : 48.0 KHz
Bit depth                                : 16 bits
Compression mode                         : Lossy
Stream size                              : 122 MiB (10%)
Alignment                                : Aligned on interleaves
Interleave, duration                     : 32 ms (0.80 video frame)

[/code]
Screens:
[img]http://img717.imageshack.us/img717/4200/vlcsnap2012012113h06m32.png[/img]
[img]http://img708.imageshack.us/img708/8254/vlcsnap2012012113h06m45.png[/img]
[img]http://img689.imageshack.us/img689/6412/vlcsnap2012012113h07m07.png[/img]
[img]http://img708.imageshack.us/img708/5066/vlcsnap2012012113h06m56.png[/img]
[img]http://img69.imageshack.us/img69/8105/vlcsnap2012012113h07m31.png[/img]

[img]http://img851.imageshack.us/img851/5503/26ks.jpg[/img]
Thank you smallz for banner!